<svg width="106" height="28" viewBox="0 0 142 38" fill="none" xmlns="http://www.w3.org/2000/svg">
<rect width="142" height="38" fill="black"/>
<path d="M122.027 26.432C121.867 25.392 121.403 24.272 120.635 23.072C119.883 21.872 118.811 20.744 117.419 19.688C116.011 18.616 114.651 17.952 113.339 17.696V16.688C114.667 16.384 115.955 15.792 117.203 14.912C118.451 14.032 119.507 12.984 120.371 11.768C121.235 10.536 121.787 9.28 122.027 8H123.035C123.179 8.816 123.467 9.64 123.899 10.472C124.347 11.304 124.915 12.104 125.603 12.872C126.291 13.624 127.051 14.304 127.883 14.912C129.147 15.808 130.443 16.4 131.771 16.688V17.696C130.875 17.872 129.955 18.232 129.011 18.776C128.083 19.32 127.219 19.96 126.419 20.696C125.619 21.432 124.963 22.208 124.451 23.024C123.667 24.272 123.195 25.408 123.035 26.432H122.027ZM122.363 25.856H122.699C122.779 25.024 122.907 24.192 123.083 23.36C123.275 22.512 123.491 21.728 123.731 21.008C123.987 20.288 124.251 19.696 124.523 19.232C125.067 18.928 125.715 18.648 126.467 18.392C127.235 18.136 128.027 17.92 128.843 17.744C129.675 17.568 130.443 17.456 131.147 17.408V17.072C130.443 17.008 129.667 16.888 128.819 16.712C127.987 16.52 127.187 16.296 126.419 16.04C125.651 15.768 125.019 15.488 124.523 15.2C124.251 14.72 123.987 14.128 123.731 13.424C123.491 12.704 123.275 11.936 123.083 11.12C122.907 10.288 122.779 9.456 122.699 8.624H122.363C122.299 9.376 122.179 10.16 122.003 10.976C121.843 11.776 121.635 12.544 121.379 13.28C121.123 14.016 120.843 14.656 120.539 15.2C120.027 15.488 119.395 15.768 118.643 16.04C117.891 16.296 117.099 16.52 116.267 16.712C115.435 16.888 114.651 17.008 113.915 17.072V17.408C114.651 17.456 115.427 17.568 116.243 17.744C117.059 17.92 117.843 18.136 118.595 18.392C119.347 18.648 119.995 18.928 120.539 19.232C120.843 19.744 121.115 20.376 121.355 21.128C121.611 21.864 121.827 22.648 122.003 23.48C122.179 24.296 122.299 25.088 122.363 25.856Z" fill="white"/>
<path d="M105.8 13.424L101.432 25.424C100.984 26.688 100.496 27.696 99.9676 28.448C99.4396 29.2 98.8156 29.744 98.0956 30.08C97.3756 30.416 96.5116 30.584 95.5036 30.584C94.8316 30.584 94.2156 30.512 93.6556 30.368C93.0956 30.224 92.6076 30.024 92.1916 29.768L93.0076 27.008C93.2956 27.216 93.5996 27.36 93.9196 27.44C94.2396 27.536 94.6476 27.584 95.1436 27.584C95.6076 27.584 95.9836 27.504 96.2716 27.344C96.5756 27.184 96.8156 26.88 96.9916 26.432L97.3036 25.688L95.9116 22.424L92.3116 13.424H96.7996L98.6476 20.264L99.2236 22.808L99.8956 20.168L101.744 13.424H105.8Z" fill="white"/>
<path d="M87.2986 17.816C87.2986 17.256 87.1386 16.816 86.8186 16.496C86.5146 16.16 86.0986 15.992 85.5706 15.992C85.0426 15.992 84.5866 16.128 84.2026 16.4C83.8346 16.656 83.5786 17.12 83.4346 17.792L79.9786 16.976C80.2026 15.824 80.7946 14.904 81.7546 14.216C82.7146 13.528 84.0666 13.184 85.8106 13.184C86.9786 13.184 87.9706 13.36 88.7866 13.712C89.6186 14.048 90.2506 14.56 90.6826 15.248C91.1306 15.92 91.3546 16.752 91.3546 17.744V22.136C91.3546 22.76 91.6346 23.072 92.1946 23.072C92.4826 23.072 92.7146 23.04 92.8906 22.976L92.6506 25.304C92.1706 25.528 91.5866 25.64 90.8986 25.64C90.2746 25.64 89.7226 25.544 89.2426 25.352C88.7626 25.144 88.3866 24.84 88.1146 24.44C87.8426 24.024 87.7066 23.504 87.7066 22.88V22.736L88.1626 22.568C88.1626 23.256 87.9546 23.832 87.5386 24.296C87.1386 24.76 86.6106 25.104 85.9546 25.328C85.3146 25.552 84.6426 25.664 83.9386 25.664C83.1226 25.664 82.4106 25.536 81.8026 25.28C81.1946 25.024 80.7226 24.656 80.3866 24.176C80.0666 23.68 79.9066 23.072 79.9066 22.352C79.9066 21.488 80.1626 20.776 80.6746 20.216C81.2026 19.64 82.0266 19.24 83.1466 19.016L87.6826 18.08L87.6586 20.24L85.3546 20.72C84.8746 20.816 84.5146 20.96 84.2746 21.152C84.0506 21.328 83.9386 21.6 83.9386 21.968C83.9386 22.32 84.0666 22.584 84.3226 22.76C84.5786 22.936 84.8826 23.024 85.2346 23.024C85.5066 23.024 85.7626 22.984 86.0026 22.904C86.2586 22.824 86.4826 22.704 86.6746 22.544C86.8666 22.368 87.0186 22.152 87.1306 21.896C87.2426 21.64 87.2986 21.336 87.2986 20.984V17.816Z" fill="white"/>
<path d="M65.7198 25.424V13.424H69.3678L69.5838 17.552L69.1278 17.096C69.2878 16.232 69.5678 15.512 69.9678 14.936C70.3838 14.36 70.8958 13.928 71.5038 13.64C72.1278 13.336 72.8238 13.184 73.5918 13.184C74.4238 13.184 75.1438 13.344 75.7518 13.664C76.3758 13.984 76.8638 14.456 77.2158 15.08C77.5678 15.704 77.7438 16.488 77.7438 17.432V25.424H73.6638V18.512C73.6638 17.68 73.5038 17.104 73.1838 16.784C72.8638 16.464 72.4558 16.304 71.9598 16.304C71.5758 16.304 71.2158 16.4 70.8798 16.592C70.5438 16.768 70.2798 17.056 70.0878 17.456C69.8958 17.856 69.7998 18.392 69.7998 19.064V25.424H65.7198Z" fill="white"/>
<path d="M50.837 25.424V13.424H54.485L54.701 17.552L54.245 17.096C54.405 16.232 54.685 15.512 55.085 14.936C55.501 14.36 56.013 13.928 56.621 13.64C57.245 13.336 57.941 13.184 58.709 13.184C59.541 13.184 60.261 13.344 60.869 13.664C61.493 13.984 61.981 14.456 62.333 15.08C62.685 15.704 62.861 16.488 62.861 17.432V25.424H58.781V18.512C58.781 17.68 58.621 17.104 58.301 16.784C57.981 16.464 57.573 16.304 57.077 16.304C56.693 16.304 56.333 16.4 55.997 16.592C55.661 16.768 55.397 17.056 55.205 17.456C55.013 17.856 54.917 18.392 54.917 19.064V25.424H50.837Z" fill="white"/>
<path d="M43.6346 17.816C43.6346 17.256 43.4746 16.816 43.1546 16.496C42.8506 16.16 42.4346 15.992 41.9066 15.992C41.3786 15.992 40.9226 16.128 40.5386 16.4C40.1706 16.656 39.9146 17.12 39.7706 17.792L36.3146 16.976C36.5386 15.824 37.1306 14.904 38.0906 14.216C39.0506 13.528 40.4026 13.184 42.1466 13.184C43.3146 13.184 44.3066 13.36 45.1226 13.712C45.9546 14.048 46.5866 14.56 47.0186 15.248C47.4666 15.92 47.6906 16.752 47.6906 17.744V22.136C47.6906 22.76 47.9706 23.072 48.5306 23.072C48.8186 23.072 49.0506 23.04 49.2266 22.976L48.9866 25.304C48.5066 25.528 47.9226 25.64 47.2346 25.64C46.6106 25.64 46.0586 25.544 45.5786 25.352C45.0986 25.144 44.7226 24.84 44.4506 24.44C44.1786 24.024 44.0426 23.504 44.0426 22.88V22.736L44.4986 22.568C44.4986 23.256 44.2906 23.832 43.8746 24.296C43.4746 24.76 42.9466 25.104 42.2906 25.328C41.6506 25.552 40.9786 25.664 40.2746 25.664C39.4586 25.664 38.7466 25.536 38.1386 25.28C37.5306 25.024 37.0586 24.656 36.7226 24.176C36.4026 23.68 36.2426 23.072 36.2426 22.352C36.2426 21.488 36.4986 20.776 37.0106 20.216C37.5386 19.64 38.3626 19.24 39.4826 19.016L44.0186 18.08L43.9946 20.24L41.6906 20.72C41.2106 20.816 40.8506 20.96 40.6106 21.152C40.3866 21.328 40.2746 21.6 40.2746 21.968C40.2746 22.32 40.4026 22.584 40.6586 22.76C40.9146 22.936 41.2186 23.024 41.5706 23.024C41.8426 23.024 42.0986 22.984 42.3386 22.904C42.5946 22.824 42.8186 22.704 43.0106 22.544C43.2026 22.368 43.3546 22.152 43.4666 21.896C43.5786 21.64 43.6346 21.336 43.6346 20.984V17.816Z" fill="white"/>
<path d="M26.7432 25.424V13.424H30.3432L30.5112 16.016C30.8152 15.12 31.2632 14.424 31.8552 13.928C32.4632 13.432 33.2312 13.184 34.1592 13.184C34.4632 13.184 34.7192 13.208 34.9272 13.256C35.1512 13.304 35.3272 13.368 35.4552 13.448L35.0472 16.808C34.8872 16.744 34.6792 16.696 34.4232 16.664C34.1832 16.616 33.8872 16.592 33.5352 16.592C33.0552 16.592 32.6072 16.696 32.1912 16.904C31.7752 17.112 31.4392 17.424 31.1832 17.84C30.9432 18.24 30.8232 18.752 30.8232 19.376V25.424H26.7432Z" fill="white"/>
<path d="M18.272 9.58398C19.568 9.58398 20.672 9.79198 21.584 10.208C22.496 10.624 23.192 11.224 23.672 12.008C24.152 12.792 24.392 13.744 24.392 14.864C24.392 15.984 24.152 16.936 23.672 17.72C23.192 18.504 22.496 19.104 21.584 19.52C20.672 19.936 19.568 20.144 18.272 20.144H15.128V25.424H11V9.58398H18.272ZM17.624 17.048C18.488 17.048 19.136 16.872 19.568 16.52C20.016 16.152 20.24 15.6 20.24 14.864C20.24 14.128 20.016 13.584 19.568 13.232C19.136 12.864 18.488 12.68 17.624 12.68H15.128V17.048H17.624Z" fill="white"/>
</svg>
