<svg width="106" height="28" viewBox="0 0 121 25" fill="none" xmlns="http://www.w3.org/2000/svg">
<path d="M111.238 20.4038C111.077 19.2526 110.612 18.0128 109.843 16.6844C109.089 15.356 108.015 14.1073 106.621 12.9384C105.21 11.7517 103.848 11.0167 102.533 10.7333V9.61743C103.864 9.28091 105.154 8.62558 106.404 7.65144C107.655 6.67729 108.713 5.51718 109.578 4.1711C110.444 2.8073 110.997 1.41693 111.238 0H112.247C112.392 0.903295 112.68 1.81544 113.113 2.73645C113.562 3.65746 114.131 4.54304 114.82 5.3932C115.51 6.22565 116.271 6.97839 117.105 7.65144C118.371 8.64329 119.669 9.29862 121 9.61743V10.7333C120.102 10.9281 119.181 11.3266 118.235 11.9288C117.305 12.531 116.439 13.2395 115.638 14.0542C114.836 14.8689 114.179 15.728 113.666 16.6312C112.881 18.0128 112.408 19.2703 112.247 20.4038H111.238ZM111.574 19.7662H111.911C111.991 18.8452 112.119 17.9242 112.296 17.0032C112.488 16.0645 112.704 15.1966 112.945 14.3996C113.201 13.6026 113.466 12.9472 113.738 12.4336C114.283 12.0971 114.933 11.7871 115.686 11.5037C116.455 11.2203 117.249 10.9812 118.066 10.7864C118.9 10.5916 119.669 10.4676 120.375 10.4145V10.0425C119.669 9.97166 118.892 9.83883 118.042 9.644C117.209 9.43146 116.407 9.18349 115.638 8.90011C114.868 8.59901 114.235 8.28906 113.738 7.97025C113.466 7.4389 113.201 6.78356 112.945 6.00425C112.704 5.20723 112.488 4.35707 112.296 3.45377C112.119 2.53277 111.991 1.61176 111.911 0.690754H111.574C111.51 1.5232 111.39 2.39107 111.213 3.29437C111.053 4.17995 110.845 5.03011 110.588 5.84485C110.332 6.65958 110.051 7.36805 109.747 7.97025C109.234 8.28906 108.601 8.59901 107.847 8.90011C107.094 9.18349 106.3 9.43146 105.467 9.644C104.633 9.83883 103.848 9.97166 103.11 10.0425V10.4145C103.848 10.4676 104.625 10.5916 105.443 10.7864C106.26 10.9812 107.046 11.2203 107.799 11.5037C108.552 11.7871 109.202 12.0971 109.747 12.4336C110.051 13.0004 110.324 13.7 110.564 14.5324C110.821 15.3472 111.037 16.215 111.213 17.136C111.39 18.0393 111.51 18.9161 111.574 19.7662Z" fill="black"/>
<path d="M94.9792 6.00424L90.603 19.288C90.1541 20.6872 89.6652 21.803 89.1362 22.6355C88.6072 23.4679 87.982 24.0701 87.2606 24.4421C86.5393 24.814 85.6736 25 84.6637 25C83.9905 25 83.3733 24.9203 82.8122 24.7609C82.2512 24.6015 81.7622 24.3801 81.3455 24.0967L82.163 21.0414C82.4516 21.2717 82.7561 21.4311 83.0767 21.5197C83.3973 21.6259 83.8061 21.6791 84.303 21.6791C84.7679 21.6791 85.1446 21.5905 85.4332 21.4134C85.7378 21.2363 85.9782 20.8997 86.1545 20.4038L86.4671 19.5802L85.0725 15.967L81.4657 6.00424H85.9622L87.8137 13.576L88.3908 16.3921L89.0641 13.4697L90.9156 6.00424H94.9792Z" fill="black"/>
<path d="M76.4432 10.8661C76.4432 10.2462 76.2829 9.7591 75.9623 9.40487C75.6577 9.03293 75.2409 8.84695 74.7119 8.84695C74.1829 8.84695 73.7261 8.9975 73.3413 9.2986C72.9726 9.58199 72.7162 10.0956 72.5719 10.8395L69.1093 9.93622C69.3338 8.66098 69.9269 7.64256 70.8887 6.88096C71.8505 6.11936 73.2051 5.73856 74.9524 5.73856C76.1226 5.73856 77.1165 5.93338 77.934 6.32304C78.7676 6.69499 79.4008 7.26176 79.8336 8.02336C80.2825 8.76725 80.5069 9.68826 80.5069 10.7864V15.6482C80.5069 16.339 80.7874 16.6844 81.3485 16.6844C81.637 16.6844 81.8695 16.6489 82.0458 16.5781L81.8054 19.1551C81.3244 19.4031 80.7393 19.5271 80.05 19.5271C79.4249 19.5271 78.8718 19.4208 78.3909 19.2083C77.91 18.978 77.5333 18.6415 77.2608 18.1987C76.9882 17.7382 76.852 17.1626 76.852 16.4718V16.3124L77.3088 16.1264C77.3088 16.888 77.1005 17.5257 76.6837 18.0393C76.2829 18.5529 75.7539 18.9337 75.0967 19.1817C74.4555 19.4297 73.7822 19.5537 73.0768 19.5537C72.2593 19.5537 71.5459 19.412 70.9368 19.1286C70.3276 18.8452 69.8548 18.4378 69.5181 17.9065C69.1975 17.3574 69.0372 16.6844 69.0372 15.8873C69.0372 14.9309 69.2937 14.1427 69.8067 13.5228C70.3357 12.8852 71.1612 12.4424 72.2833 12.1945L76.8279 11.1583L76.8039 13.5494L74.4955 14.0807C74.0146 14.187 73.6539 14.3464 73.4135 14.559C73.1891 14.7538 73.0768 15.0549 73.0768 15.4623C73.0768 15.8519 73.2051 16.1442 73.4616 16.339C73.7181 16.5338 74.0226 16.6312 74.3753 16.6312C74.6478 16.6312 74.9043 16.5869 75.1448 16.4984C75.4012 16.4098 75.6257 16.277 75.818 16.0999C76.0104 15.905 76.1627 15.6659 76.2749 15.3826C76.3871 15.0992 76.4432 14.7626 76.4432 14.373V10.8661Z" fill="black"/>
<path d="M54.8235 19.288V6.00423H58.4784L58.6948 10.5738L58.2379 10.0691C58.3982 9.11263 58.6788 8.3156 59.0795 7.67798C59.4963 7.04036 60.0093 6.56215 60.6184 6.24334C61.2436 5.90682 61.9409 5.73856 62.7104 5.73856C63.544 5.73856 64.2653 5.91567 64.8745 6.26991C65.4997 6.62414 65.9886 7.14663 66.3413 7.83739C66.6939 8.52814 66.8703 9.39601 66.8703 10.441V19.288H62.7825V11.6365C62.7825 10.7155 62.6222 10.0779 62.3016 9.72368C61.981 9.36945 61.5722 9.19233 61.0753 9.19233C60.6906 9.19233 60.3299 9.2986 59.9933 9.51114C59.6566 9.70597 59.3921 10.0248 59.1998 10.4676C59.0074 10.9104 58.9112 11.5037 58.9112 12.2476V19.288H54.8235Z" fill="black"/>
<path d="M39.9124 19.288V6.00423H43.5673L43.7837 10.5738L43.3269 10.0691C43.4872 9.11263 43.7677 8.3156 44.1685 7.67798C44.5853 7.04036 45.0982 6.56215 45.7074 6.24334C46.3326 5.90682 47.0299 5.73856 47.7993 5.73856C48.6329 5.73856 49.3543 5.91567 49.9634 6.26991C50.5886 6.62414 51.0775 7.14663 51.4302 7.83739C51.7829 8.52814 51.9592 9.39601 51.9592 10.441V19.288H47.8715V11.6365C47.8715 10.7155 47.7112 10.0779 47.3906 9.72368C47.07 9.36945 46.6612 9.19233 46.1642 9.19233C45.7795 9.19233 45.4188 9.2986 45.0822 9.51114C44.7456 9.70597 44.4811 10.0248 44.2887 10.4676C44.0963 10.9104 44.0001 11.5037 44.0001 12.2476V19.288H39.9124Z" fill="black"/>
<path d="M32.6964 10.8661C32.6964 10.2462 32.5361 9.7591 32.2155 9.40487C31.9109 9.03293 31.4941 8.84695 30.9651 8.84695C30.4361 8.84695 29.9793 8.9975 29.5945 9.2986C29.2258 9.58199 28.9694 10.0956 28.8251 10.8395L25.3625 9.93622C25.587 8.66098 26.1801 7.64256 27.1419 6.88096C28.1037 6.11936 29.4583 5.73856 31.2056 5.73856C32.3758 5.73856 33.3697 5.93338 34.1872 6.32304C35.0208 6.69499 35.654 7.26176 36.0868 8.02336C36.5357 8.76725 36.7601 9.68826 36.7601 10.7864V15.6482C36.7601 16.339 37.0406 16.6844 37.6017 16.6844C37.8902 16.6844 38.1227 16.6489 38.299 16.5781L38.0586 19.1551C37.5776 19.4031 36.9925 19.5271 36.3032 19.5271C35.6781 19.5271 35.125 19.4208 34.6441 19.2083C34.1632 18.978 33.7865 18.6415 33.514 18.1987C33.2414 17.7382 33.1052 17.1626 33.1052 16.4718V16.3124L33.5621 16.1264C33.5621 16.888 33.3537 17.5257 32.9369 18.0393C32.5361 18.5529 32.0071 18.9337 31.3499 19.1817C30.7087 19.4297 30.0354 19.5537 29.33 19.5537C28.5125 19.5537 27.7991 19.412 27.19 19.1286C26.5808 18.8452 26.108 18.4378 25.7713 17.9065C25.4507 17.3574 25.2904 16.6844 25.2904 15.8873C25.2904 14.9309 25.5469 14.1427 26.0599 13.5228C26.5889 12.8852 27.4144 12.4424 28.5365 12.1945L33.0811 11.1583L33.0571 13.5494L30.7487 14.0807C30.2678 14.187 29.9071 14.3464 29.6667 14.559C29.4423 14.7538 29.33 15.0549 29.33 15.4623C29.33 15.8519 29.4583 16.1442 29.7148 16.339C29.9713 16.5338 30.2758 16.6312 30.6285 16.6312C30.901 16.6312 31.1575 16.5869 31.398 16.4984C31.6544 16.4098 31.8789 16.277 32.0712 16.0999C32.2636 15.905 32.4159 15.6659 32.5281 15.3826C32.6403 15.0992 32.6964 14.7626 32.6964 14.373V10.8661Z" fill="black"/>
<path d="M15.7731 19.288V6.00423H19.3799L19.5482 8.87352C19.8528 7.88167 20.3016 7.11121 20.8948 6.56215C21.5039 6.01309 22.2734 5.73856 23.2031 5.73856C23.5077 5.73856 23.7642 5.76512 23.9726 5.81826C24.197 5.87139 24.3733 5.94224 24.5016 6.0308L24.0928 9.75025C23.9325 9.6794 23.7241 9.62627 23.4676 9.59084C23.2272 9.53771 22.9306 9.51114 22.5779 9.51114C22.097 9.51114 21.6482 9.62627 21.2314 9.85652C20.8146 10.0868 20.478 10.4321 20.2215 10.8926C19.981 11.3354 19.8608 11.9022 19.8608 12.593V19.288H15.7731Z" fill="black"/>
<path d="M7.28578 1.75345C8.58424 1.75345 9.69033 1.9837 10.6041 2.4442C11.5178 2.90471 12.2151 3.56889 12.696 4.43676C13.1769 5.30464 13.4174 6.35848 13.4174 7.5983C13.4174 8.83811 13.1769 9.89195 12.696 10.7598C12.2151 11.6277 11.5178 12.2919 10.6041 12.7524C9.69033 13.2129 8.58424 13.4431 7.28578 13.4431H4.13582V19.288H0V1.75345H7.28578ZM6.63655 10.0159C7.50219 10.0159 8.15142 9.82111 8.58423 9.43145C9.03308 9.02408 9.25751 8.41303 9.25751 7.5983C9.25751 6.78356 9.03308 6.18136 8.58423 5.79171C8.15142 5.38434 7.50219 5.18065 6.63655 5.18065H4.13582V10.0159H6.63655Z" fill="black"/>
</svg>
