<svg height="16" viewBox="0 0 16 16" width="16" xmlns="http://www.w3.org/2000/svg"><g fill="#000"><path d="m6.41808 12.1861c-.84794.8738-.86508 2.2961 0 3.1591.87184.8718 2.29508.8718 3.16545.0003.87577-.872.87537-2.2876 0-3.1591-.71848-.72-.71812-1.8845 0-2.60278.84957-.87477.86657-2.30424 0-3.16749-.87077-.87207-2.29374-.87184-3.16545 0-.72287.69857-1.88822.71259-2.60261 0-.71846-.71953-.71846-1.88425-.00027-2.6034.84845-.87433.86577-2.29447.0004-3.158389-.8708-.873707-2.28856-.873707-3.160232-.0003-.873859.872969-.873789 2.285789 0 3.158689.697952.72098.712062 1.89122 0 2.6034-.847885.87421-.865189 2.30337-.000046 3.16749.871828.87078 2.289308.87078 3.159918 0 .72337-.69907 1.88871-.71329 2.60284 0 .7193.71848.71922 1.88278 0 2.60248z"/><path d="m9.58326 3.82319c.87564-.87519.87564-2.29194-.00009-3.167216-.87349-.875988-2.29236-.875988-3.16501.000324-.87704.874862-.87755 2.292392 0 3.167172.87225.87415 2.29141.87415 3.1651-.00028z"/><path d="m15.3433 9.5835c.8756-.87518.8756-2.29221-.0001-3.16749-.8735-.87599-2.2924-.87599-3.165.00032-.877.87486-.8776 2.29239 0 3.16717.8722.8742 2.2914.8744 3.1651 0z"/></g></svg>
